<svg width="108" height="128" viewBox="0 0 108 128" fill="none" xmlns="http://www.w3.org/2000/svg">
<path opacity="0.5" d="M18.792 106L46.184 22.8H62.056L89.448 106H73.32L67.432 87.568H40.04L34.152 106H18.792ZM44.392 73.488H63.08L53.736 42.896L44.392 73.488Z" fill="#151515"/>
<path d="M33.384 58.768C29.3733 58.768 26.1733 57.3387 23.784 54.48C21.4373 51.5787 20.264 47.6747 20.264 42.768C20.264 37.8613 21.4373 33.9787 23.784 31.12C26.1733 28.2187 29.3733 26.768 33.384 26.768C34.792 26.768 36.1787 26.9813 37.544 27.408C38.952 27.792 40.3387 28.4107 41.704 29.264V12.56H49.256V58H43.688L43.048 55.44C39.8907 57.6587 36.6693 58.768 33.384 58.768ZM35.304 51.856C36.3707 51.856 37.4373 51.7067 38.504 51.408C39.5707 51.1093 40.6373 50.6827 41.704 50.128V35.408C40.6373 34.8107 39.5707 34.384 38.504 34.128C37.4373 33.8293 36.3707 33.68 35.304 33.68C32.8293 33.68 30.9733 34.448 29.736 35.984C28.4987 37.4773 27.88 39.7387 27.88 42.768C27.88 45.7973 28.4987 48.08 29.736 49.616C30.9733 51.1093 32.8293 51.856 35.304 51.856ZM56.941 58V27.536H61.421L61.997 29.84C64.173 27.792 66.5197 26.768 69.037 26.768C71.6823 26.768 73.6237 27.792 74.861 29.84C76.909 27.792 79.1703 26.768 81.645 26.768C83.821 26.768 85.5277 27.472 86.765 28.88C88.045 30.2453 88.685 32.1227 88.685 34.512V58H82.157V35.408C82.157 33.872 81.325 33.104 79.661 33.104C78.3383 33.104 77.1437 33.5733 76.077 34.512V58H69.549V35.408C69.549 33.872 68.717 33.104 67.053 33.104C65.773 33.104 64.5783 33.552 63.469 34.448V58H56.941ZM32.296 112.768C28.584 112.768 25.6827 111.915 23.592 110.208C21.544 108.459 20.52 106.027 20.52 102.912C20.52 99.9253 21.5013 97.6427 23.464 96.064C25.4693 94.4853 28.3493 93.696 32.104 93.696H41.64V93.12C41.64 90.9867 41.128 89.472 40.104 88.576C39.08 87.6373 37.3733 87.168 34.984 87.168C31.2293 87.168 27.7307 88.1067 24.488 89.984L22.248 83.904C26.216 81.8133 30.7387 80.768 35.816 80.768C40.424 80.768 43.7947 81.728 45.928 83.648C48.104 85.568 49.192 88.576 49.192 92.672V112H43.624L42.984 109.376C41.32 110.571 39.6133 111.445 37.864 112C36.1573 112.512 34.3013 112.768 32.296 112.768ZM33.896 106.368C36.7973 106.368 39.3787 105.728 41.64 104.448V99.392H32.808C31.1867 99.392 30.0133 99.6693 29.288 100.224C28.5627 100.736 28.2 101.547 28.2 102.656C28.2 103.893 28.648 104.832 29.544 105.472C30.4827 106.069 31.9333 106.368 33.896 106.368ZM79.149 112.768C71.2983 112.768 67.373 108.864 67.373 101.056V73.408H55.597V66.56H74.925V99.904C74.925 102.08 75.3303 103.616 76.141 104.512C76.9943 105.408 78.445 105.856 80.493 105.856C83.0103 105.856 85.4423 105.131 87.789 103.68L89.709 110.08C86.637 111.872 83.117 112.768 79.149 112.768Z" fill="#131313"/>
</svg>
